<?xml version="1.0" standalone="no"?>
<!DOCTYPE svg PUBLIC "-//W3C//DTD SVG 20010904//EN"
 "http://www.w3.org/TR/2001/REC-SVG-20010904/DTD/svg10.dtd">
<svg version="1.0" xmlns="http://www.w3.org/2000/svg"
 width="318.000000pt" height="318.000000pt" viewBox="0 0 318.000000 318.000000"
 preserveAspectRatio="xMidYMid meet">
<metadata>
Created by potrace 1.11, written by Peter Selinger 2001-2013
</metadata>
<g transform="translate(0.000000,318.000000) scale(0.100000,-0.100000)"
fill="#000000" stroke="none">
<path d="M1046 2578 c-278 -36 -497 -186 -615 -424 -32 -65 -79 -203 -87 -255
-10 -75 -15 -116 -18 -145 -1 -23 -12 -40 -36 -60 -306 -246 -370 -567 -168
-840 65 -87 240 -224 319 -249 32 -11 2191 -12 2254 -2 186 31 327 133 406
292 125 256 87 474 -120 684 -47 48 -103 100 -123 116 -34 28 -37 34 -42 100
-19 240 -142 416 -360 515 -196 89 -421 85 -618 -10 l-62 -30 -61 58 c-208
203 -420 282 -669 250z m229 -180 c148 -32 310 -152 428 -315 l30 -42 41 27
c91 59 164 95 240 117 182 52 393 -1 517 -132 86 -91 120 -191 115 -335 l-3
-87 62 -40 c172 -111 285 -265 298 -403 12 -131 -88 -315 -203 -373 -93 -47
-72 -46 -1222 -46 l-1089 0 -43 25 c-112 65 -214 178 -248 273 -64 181 24 375
237 522 l60 42 1 67 c5 288 131 530 329 634 146 76 301 99 450 66z"/>
</g>
</svg>
